<svg width="256" height="256" viewBox="0 0 256 256" fill="none" xmlns="http://www.w3.org/2000/svg">
  <defs>
    <linearGradient id="score-mark-badge" x1="128" y1="18" x2="128" y2="238" gradientUnits="userSpaceOnUse">
      <stop offset="0" stop-color="#FFB24B"/>
      <stop offset="1" stop-color="#F57B1F"/>
    </linearGradient>
    <radialGradient id="score-mark-ball" cx="0" cy="0" r="1" gradientUnits="userSpaceOnUse" gradientTransform="translate(164 92) rotate(123.2) scale(88)">
      <stop offset="0" stop-color="#FFD078"/>
      <stop offset="0.42" stop-color="#FFA02F"/>
      <stop offset="1" stop-color="#F36E16"/>
    </radialGradient>
  </defs>

  <circle cx="154" cy="124" r="68" fill="url(#score-mark-ball)" stroke="#D45C0F" stroke-width="4"/>
  <path d="M154 56C135 75 126 99 126 124C126 149 135 173 154 192" stroke="#2D2D2D" stroke-width="5" stroke-linecap="round"/>
  <path d="M154 56C173 75 182 99 182 124C182 149 173 173 154 192" stroke="#2D2D2D" stroke-width="5" stroke-linecap="round"/>
  <path d="M86 124H222" stroke="#2D2D2D" stroke-width="5" stroke-linecap="round"/>
  <rect x="49" y="18" width="142" height="220" rx="18" fill="url(#score-mark-badge)" stroke="#2D2D2D" stroke-width="10"/>
  <rect x="64" y="33" width="112" height="190" rx="12" fill="#FFB24B" fill-opacity="0.12" stroke="#2D2D2D" stroke-opacity="0.22" stroke-width="3"/>
  <path d="M136 60C105 83 92 109 92 124C92 139 105 165 136 196V60Z" fill="#FF7C1A" stroke="#2D2D2D" stroke-width="5" stroke-linejoin="round"/>
  <path d="M138 60C119 85 111 107 111 124C111 141 119 168 138 194" stroke="#2D2D2D" stroke-width="5" stroke-linecap="round"/>
  <path d="M138 60C160 85 166 107 166 124C166 141 160 168 138 194" stroke="#2D2D2D" stroke-width="5" stroke-linecap="round" opacity="0.86"/>
</svg>
